<?xml version="1.0" standalone="no"?>
<!DOCTYPE svg PUBLIC "-//W3C//DTD SVG 20010904//EN"
 "http://www.w3.org/TR/2001/REC-SVG-20010904/DTD/svg10.dtd">
<svg version="1.0" xmlns="http://www.w3.org/2000/svg"
 width="1000.000000pt" height="1000.000000pt" viewBox="0 0 1000.000000 1000.000000"
 preserveAspectRatio="xMidYMid meet">
<metadata>
Created by potrace 1.11, written by Peter Selinger 2001-2013
</metadata>
<g transform="translate(0.000000,1000.000000) scale(0.100000,-0.100000)"
fill="#000000" stroke="none">
<path d="M4717 9074 c-1 -1 -33 -5 -72 -9 -38 -4 -90 -11 -115 -16 -25 -5 -54
-11 -65 -13 -79 -14 -258 -71 -385 -123 -330 -136 -743 -402 -1090 -702 -14
-12 -50 -43 -80 -69 -139 -120 -404 -381 -566 -558 -232 -252 -588 -690 -724
-889 -18 -27 -36 -52 -39 -55 -21 -19 -327 -479 -411 -620 -41 -69 -78 -126
-82 -128 -5 -2 -8 -7 -8 -11 0 -4 -31 -61 -68 -127 -118 -205 -177 -314 -275
-509 -65 -130 -187 -384 -187 -391 0 -2 -12 -29 -26 -61 -43 -94 -134 -310
-138 -328 -2 -5 -8 -21 -13 -35 -69 -168 -208 -596 -248 -760 -54 -224 -98
-437 -111 -535 -3 -27 -9 -54 -12 -60 -3 -7 -2 -7 5 0 8 8 41 104 49 140 9 45
170 455 220 562 19 40 34 76 34 78 0 3 41 90 92 193 361 738 866 1500 1443
2172 82 96 154 180 160 186 614 676 1232 1183 1774 1454 162 81 322 147 381
158 3 1 31 10 62 21 69 24 229 57 318 66 69 7 222 8 255 1 11 -2 45 -7 75 -11
130 -17 442 -140 613 -241 114 -67 253 -164 363 -252 138 -109 384 -355 493
-492 46 -58 91 -114 100 -125 62 -76 210 -300 300 -455 65 -111 210 -398 272
-535 29 -67 153 -390 168 -440 7 -22 16 -49 21 -60 5 -11 11 -29 13 -40 3 -11
19 -65 35 -120 26 -87 67 -239 77 -285 2 -8 6 -27 10 -42 l7 -27 386 4 c213 2
406 4 430 4 l44 1 -7 48 c-4 26 -8 61 -11 77 -2 17 -6 45 -9 63 -3 17 -8 49
-11 70 -22 146 -98 477 -154 671 -340 1174 -1015 2152 -1868 2705 -285 185
-592 320 -887 389 -119 28 -136 32 -238 48 -59 9 -292 20 -300 13z"/>
<path d="M9975 6883 c-19 -68 -111 -334 -130 -378 -7 -16 -43 -102 -80 -190
-121 -290 -366 -769 -536 -1045 -261 -427 -456 -713 -719 -1055 -72 -93 -139
-179 -148 -190 -9 -11 -62 -74 -117 -140 -150 -180 -156 -187 -258 -300 -223
-245 -471 -493 -677 -675 -40 -36 -78 -70 -84 -76 -34 -33 -257 -211 -356
-285 -398 -298 -798 -510 -1133 -599 -62 -16 -128 -32 -147 -35 -19 -3 -60 -9
-90 -14 -59 -10 -315 -7 -365 3 -218 48 -371 111 -660 270 -54 30 -261 175
-301 211 -7 5 -31 26 -55 45 -64 52 -161 144 -258 244 -118 122 -110 113 -183
202 -437 530 -760 1181 -969 1954 -23 83 -24 86 -33 130 -15 71 -11 68 -79 64
-34 -2 -222 -6 -417 -8 -195 -2 -360 -4 -367 -5 -6 -1 -10 -12 -7 -28 11 -82
34 -231 38 -249 2 -12 7 -39 10 -60 13 -80 49 -244 88 -399 186 -739 504
-1409 936 -1975 52 -69 98 -127 101 -130 3 -3 35 -39 71 -80 478 -553 1054
-932 1660 -1094 52 -13 109 -27 125 -30 17 -3 73 -12 125 -21 99 -17 301 -23
383 -12 26 4 68 10 95 13 159 20 414 106 637 213 139 67 397 216 403 232 2 5
8 9 13 9 25 0 400 282 544 408 246 216 603 573 756 756 13 16 31 36 39 44 43
45 293 353 397 490 239 315 481 671 662 977 39 66 76 127 81 135 5 8 54 96
109 195 143 259 243 458 379 755 77 168 207 497 278 705 83 240 198 666 220
815 3 19 10 54 15 78 5 24 12 62 15 85 2 23 7 54 10 70 8 46 -4 30 -21 -30z"/>
</g>
</svg>
